<?xml version="1.0" standalone="no"?><!DOCTYPE svg PUBLIC "-//W3C//DTD SVG 1.1//EN" "http://www.w3.org/Graphics/SVG/1.1/DTD/svg11.dtd"><svg t="1743172737084" class="icon" viewBox="0 0 1024 1024" version="1.1" xmlns="http://www.w3.org/2000/svg" p-id="6692" xmlns:xlink="http://www.w3.org/1999/xlink" width="32" height="32"><path d="M226.8 168v688h570.4V168H226.8z m552.8 670.4H244.4V185.6h535.1v652.8z" fill="#D7261B" p-id="6693"></path><path d="M450.3 691.4v-64.7h123.5v170.6h152.9V432.6h-0.2c-4.4-107.6-87.8-194.7-193.8-204.8v155.5c24 8.5 41.2 31.3 41.2 58.2 0 3-0.3 5.9-0.7 8.8h0.7v35.3H450.3v-35.3h0.7c-0.4-2.9-0.7-5.8-0.7-8.8 0-29 20.1-53.3 47-59.9V227.4c-108.8 7.4-195.3 95.7-199.7 205.3h-0.2v364.6h152.9V691.4z" fill="#D7261B" p-id="6694"></path></svg>