<?xml version="1.0" standalone="no"?><!DOCTYPE svg PUBLIC "-//W3C//DTD SVG 1.1//EN" "http://www.w3.org/Graphics/SVG/1.1/DTD/svg11.dtd"><svg t="1743172709542" class="icon" viewBox="0 0 4166 1024" version="1.1" xmlns="http://www.w3.org/2000/svg" p-id="4559" xmlns:xlink="http://www.w3.org/1999/xlink" width="130.1875" height="32"><path d="M510.52544 510.68928m-330.62912 0a330.62912 330.62912 0 1 0 661.25824 0 330.62912 330.62912 0 1 0-661.25824 0Z" fill="#F8C63F" p-id="4560"></path><path d="M438.272 6.826667C319.761067 25.668267 220.910933 77.0048 141.7216 160.5632c-77.550933 81.92-122.606933 177.493333-137.6256 291.6352-14.7456 112.503467 14.199467 237.294933 78.097067 335.598933 40.413867 62.2592 99.396267 120.149333 158.9248 156.740267 151.278933 92.5696 333.4144 101.853867 491.246933 25.122133 139.810133-67.720533 244.1216-200.704 275.2512-351.163733 13.1072-62.805333 14.199467-139.810133 2.730667-200.430933C976.213333 234.564267 842.683733 83.285333 663.552 25.668267c-47.786667-15.5648-82.193067-20.753067-143.36-21.845334-40.96-0.546133-64.443733 0.273067-81.92 3.003734z m106.496 15.018666c45.8752 3.822933 81.1008 10.922667 120.968533 24.029867 166.570667 55.7056 289.1776 195.242667 326.0416 371.0976 5.461333 25.941333 6.280533 37.410133 6.280534 95.0272 0 73.181867-3.2768 96.6656-21.572267 152.3712-58.1632 177.493333-213.538133 308.292267-397.038933 333.960533-42.871467 6.007467-126.429867 3.822933-164.386134-4.096C134.894933 935.5264-35.771733 662.459733 35.2256 386.935467 86.8352 187.323733 262.9632 39.048533 468.855467 22.1184c39.048533-3.2768 37.956267-3.2768 75.912533-0.273067z" fill="#00489A" p-id="4561"></path><path d="M448.1024 45.329067c-51.063467 7.099733-97.4848 21.026133-143.633067 43.690666-140.356267 68.266667-235.383467 198.2464-259.413333 354.7136-6.5536 41.233067-4.369067 121.787733 4.096 160.836267 22.1184 102.946133 76.458667 196.881067 150.7328 261.3248 158.1056 136.533333 381.474133 154.8288 557.8752 45.602133 106.769067-66.3552 184.866133-176.9472 211.080533-299.8272 18.295467-84.3776 13.653333-166.2976-13.653333-249.856-36.590933-112.503467-126.702933-216.2688-234.018133-270.062933-84.3776-42.325333-181.316267-58.709333-273.066667-46.421333z m4.096 13.380266c1.092267 2.184533-0.273067 8.192-2.730667 13.380267-2.4576 5.188267-4.369067 13.380267-4.369066 18.568533 0 4.9152-1.911467 11.4688-4.096 14.199467-5.188267 6.826667-5.461333 15.5648-0.273067 13.653333 4.9152-1.911467 7.645867 6.280533 4.369067 12.561067-4.369067 7.918933-3.2768 11.4688 2.730666 9.557333 6.5536-1.911467 16.384 0.546133 16.384 4.369067 0 1.365333-2.184533 3.2768-4.642133 4.096-2.730667 0.8192-8.738133 3.549867-13.653333 6.007467-7.099733 3.549867-9.284267 3.822933-12.834134 0.546133-2.730667-2.184533-3.822933-5.461333-2.730666-8.738133 0.8192-2.730667 0-6.826667-1.6384-9.0112-1.6384-2.184533-2.4576-5.188267-1.6384-6.5536 2.4576-3.549867-1.365333-25.122133-3.822934-23.483734-3.2768 1.911467-7.3728-4.369067-10.376533-15.837866-3.2768-11.741867-0.546133-13.1072 7.099733-3.2768 5.461333 7.099733 8.738133 6.5536 8.738134-1.6384 0-3.549867-1.6384-4.369067-6.007467-3.003734-6.826667 1.6384-7.3728 2.730667 8.465067-18.0224 9.0112-11.741867 18.295467-15.018667 21.026133-7.3728zM618.496 90.112c6.007467 3.003733 12.561067 5.461333 15.018667 5.461333 6.007467 0 16.384 7.918933 16.384 12.561067 0 2.184533-3.003733 5.188267-6.826667 6.5536-10.922667 4.096-26.760533 15.5648-23.7568 17.476267 1.365333 0.8192 5.461333 0.8192 9.284267 0.273066 7.645867-1.365333 14.472533 4.369067 12.288 10.6496-1.092267 2.730667-4.642133 3.2768-14.7456 1.6384-13.653333-2.184533-27.579733-1.6384-41.506134 1.365334-6.280533 1.365333-8.738133 0.546133-10.922666-3.822934-6.280533-11.4688-4.096-14.472533 10.103466-13.380266 11.4688 1.092267 14.7456-0.273067 31.9488-11.195734l19.114667-12.561066-10.922667-0.8192c-11.4688-0.8192-17.749333-6.280533-17.749333-14.7456 0-6.007467-0.546133-6.007467 12.288 0.546133z m-209.442133 8.192c1.365333 20.206933 3.549867 28.398933 6.280533 24.302933 1.6384-2.4576 1.911467 3.003733 0.8192 15.291734-1.911467 24.302933-2.4576 25.941333-9.0112 25.941333-5.188267 0-5.461333-1.092267-3.822933-12.834133 1.092267-7.645867 0.546133-12.014933-0.8192-10.922667-1.6384 0.8192-4.369067 0.546133-6.280534-0.8192-3.003733-1.6384-2.730667-3.549867 1.6384-9.0112 5.7344-7.645867 5.7344-27.0336 0-21.2992-4.096 4.096-10.103467 3.822933-11.741866-0.8192-1.911467-5.188267 12.288-21.2992 17.749333-20.206933 2.730667 0.546133 4.642133 4.369067 5.188267 10.376533zM257.774933 129.979733c0.8192 2.4576 1.6384 8.465067 1.6384 13.653334 0 7.918933 0.8192 9.0112 6.280534 8.465066 4.369067-0.273067 6.007467 0.8192 6.007466 4.9152 0.273067 7.3728 8.465067 19.114667 10.922667 15.291734 0.8192-1.6384 2.730667-3.003733 4.369067-3.003734 3.2768 0 3.2768 15.5648-0.273067 17.749334-1.6384 1.092267-2.730667 7.099733-2.4576 13.9264 0.8192 13.653333-1.6384 18.295467-4.096 8.192-1.092267-4.369067-3.003733-6.280533-5.461333-5.461334-2.730667 1.092267-3.2768-0.546133-2.730667-6.280533 1.092267-7.3728 1.092267-7.3728-1.6384-1.092267-2.184533 5.188267-3.549867 5.7344-6.826667 3.003734-2.184533-1.911467-4.096-6.007467-4.096-9.284267 0-8.465067-3.822933-13.1072-9.0112-10.922667-5.188267 1.911467-5.7344-1.911467-2.184533-11.195733 1.365333-3.003733 1.092267-7.918933-0.546133-10.922667-1.911467-3.822933-1.911467-5.461333 0.546133-6.280533 2.4576-0.8192 2.4576-1.911467 0-4.9152s-2.184533-3.822933 1.6384-3.822933c3.003733 0 4.096-1.365333 3.003733-4.096-0.8192-2.184533-2.4576-6.007467-3.2768-8.192-1.092267-2.4576-0.273067-4.096 2.4576-4.096 2.184533 0 4.9152 1.911467 5.7344 4.369066zM794.624 171.758933c0 9.0112-1.365333 11.741867-8.192 16.657067-9.8304 6.826667-10.376533 10.103467-1.911467 11.4688 3.822933 0.546133 6.280533 3.003733 6.826667 6.826667 1.092267 7.3728 0 7.645867-10.922667 1.911466-8.465067-4.369067-9.284267-4.369067-28.945066 2.730667-10.376533 4.096-12.561067 4.096-19.6608 0.273067-7.099733-3.549867-13.653333-11.4688-13.653334-16.384 0-0.8192 3.003733 0.546133 6.5536 2.730666 3.822933 2.730667 10.6496 4.096 15.837867 3.549867l9.0112-1.092267-7.099733-3.003733c-5.188267-2.184533-7.645867-5.7344-8.738134-12.288-0.546133-4.9152-0.8192-9.557333-0.273066-10.103467 0.273067-0.546133 4.369067 1.6384 8.738133 4.9152 17.476267 12.288 21.026133 12.288 33.314133-1.6384 6.007467-6.826667 10.922667-13.653333 10.922667-14.7456 0-1.365333 1.911467-2.4576 4.096-2.4576 3.003733 0 4.096 3.003733 4.096 10.6496z m-212.1728-1.092266c129.160533 29.218133 230.468267 126.429867 264.6016 253.952 8.192 31.402667 8.738133 35.2256 8.738133 84.650666 0.273067 56.797867-2.4576 74.001067-18.0224 118.784-34.4064 97.211733-113.0496 176.674133-209.7152 211.3536-49.9712 18.0224-111.4112 24.849067-162.474666 18.295467-147.182933-19.387733-264.874667-128.887467-296.823467-276.0704-7.3728-33.860267-7.918933-99.669333-1.365333-133.802667 24.576-125.3376 112.503467-226.372267 231.560533-265.966933 43.963733-14.7456 67.447467-18.0224 119.876267-16.657067 26.487467 0.546133 52.701867 2.730667 63.624533 5.461334z m-353.621333-1.6384c4.369067 2.4576 9.284267 22.1184 5.7344 22.1184-1.911467 0-13.380267-20.48-13.380267-23.7568 0-1.6384 4.096-0.8192 7.645867 1.6384z m69.085866 22.1184c6.826667 3.822933 6.5536 8.738133-0.8192 15.291733-4.9152 4.369067-5.461333 4.369067-4.096 0.8192 0.8192-2.4576-0.273067-7.099733-2.184533-10.103467-5.7344-7.645867-2.184533-10.6496 7.099733-6.007466z m-45.056 7.3728c0.8192 2.730667 5.188267 13.380267 9.557334 24.029866 8.738133 21.2992 9.557333 25.941333 4.369066 25.941334-4.369067 0-10.103467-5.461333-10.103466-9.8304 0-1.6384-4.096-11.4688-8.738134-21.845334-4.9152-10.376533-9.284267-19.6608-9.8304-21.026133-0.546133-1.092267 2.184533-1.911467 6.007467-1.911467 4.642133 0 7.918933 1.911467 8.738133 4.642134z m519.3728 51.882666c4.096 7.3728 2.4576 7.918933-7.918933 1.6384-10.376533-6.007467-10.922667-8.738133-6.280533-24.576 6.5536-21.845333 7.645867-22.1184 9.284266-2.184533 0.8192 10.376533 3.003733 21.845333 4.9152 25.122133z m-617.130666 19.6608c0.8192 4.369067 0 5.7344-2.730667 4.642134-1.911467-0.8192-5.7344-2.4576-8.192-3.2768-8.738133-3.003733-4.9152-10.103467 4.642133-8.738134 3.2768 0.546133 5.7344 3.2768 6.280534 7.3728z m-20.753067 8.738134c7.645867 7.918933 11.741867 10.103467 13.1072 7.918933 2.730667-4.369067 9.0112-0.546133 7.099733 4.369067-1.6384 4.369067 7.099733 10.922667 18.8416 13.653333l8.192 1.911467-6.5536-7.3728c-5.7344-6.007467-6.007467-7.099733-1.911466-7.099734 5.188267 0 26.2144 21.2992 26.2144 26.487467 0 4.096-3.003733 4.369067-16.384 1.092267l-9.557334-2.184534-0.546133 25.941334c-0.8192 25.668267-3.2768 33.314133-10.922667 33.314133-3.003733 0-3.822933-1.6384-2.4576-6.280533 4.096-13.380267 7.099733-38.229333 5.7344-43.144534-2.730667-8.465067-7.3728-6.007467-5.461333 2.730667 2.184533 10.103467-2.4576 13.1072-8.738133 6.007467-5.461333-6.5536-9.0112-3.2768-9.0112 8.192 0 6.280533-6.826667 12.834133-9.8304 9.8304-0.546133-0.546133 1.911467-12.561067 5.461333-26.760534 7.3728-29.218133 7.099733-29.764267-12.561067-42.325333-12.561067-7.918933-13.653333-14.7456-2.730666-17.2032 0.546133-0.273067 6.007467 4.642133 12.014933 10.922667z m758.033067 9.284266c-0.8192 6.826667-0.546133 13.1072 0.8192 13.9264 1.365333 0.8192 2.4576-0.546133 2.4576-2.730666 0-5.461333 4.369067-5.7344 6.5536-0.273067 0.8192 2.184533 3.2768 3.2768 5.7344 2.4576 3.003733-1.365333 4.096 0.273067 4.096 5.461333 0 3.822933-1.6384 7.099733-3.2768 7.099734-1.911467 0 0 3.003733 4.096 6.826666 8.192 7.645867 9.557333 15.291733 3.549866 20.206934-3.2768 2.730667-5.461333 2.4576-11.195733-1.365334-7.099733-4.642133-7.645867-4.642133-10.103467 0-1.6384 3.003733-4.369067 4.096-8.192 2.730667-4.642133-1.365333-5.188267-0.8192-3.549866 4.096 2.4576 8.192-0.546133 11.741867-7.099734 8.192-4.096-1.911467-4.9152-4.369067-3.549866-8.465067 1.365333-4.9152 0-4.369067-9.8304 3.549867-21.572267 17.476267-21.2992 17.476267-23.483734 0.8192-1.092267-8.465067-0.8192-9.8304 1.6384-6.007467 1.6384 2.730667 4.369067 4.9152 6.007467 4.9152 3.549867 0 15.837867-10.6496 15.837867-13.9264 0-1.092267-4.642133-3.822933-10.6496-6.007466-11.195733-4.642133-15.018667-10.376533-12.288-18.8416 1.6384-5.188267 2.4576-4.9152 11.741866 3.822933 18.0224 16.657067 21.845333 19.387733 26.487467 17.476267 3.822933-1.365333 3.2768-2.4576-2.730667-7.3728-3.822933-3.003733-7.099733-7.3728-7.099733-9.8304 0-2.730667 3.822933-0.8192 11.4688 5.7344 6.826667 6.007467 14.199467 9.8304 18.568533 9.8304 9.0112 0 11.741867-2.4576 7.645867-7.3728-2.4576-3.003733-3.822933-3.003733-7.918933 0.8192s-5.7344 3.822933-9.284267 1.092266c-2.184533-1.911467-4.096-4.9152-4.096-6.826666s-1.911467-4.369067-4.369067-5.188267c-2.184533-0.8192-3.549867-2.730667-2.730666-4.096 1.092267-1.365333 0-3.003733-2.184534-3.549867-3.549867-0.546133-3.2768-2.730667 1.365334-13.1072 4.9152-10.376533 6.007467-11.4688 7.645866-6.826666 1.911467 4.642133 2.184533 4.642133 4.096-2.184534 2.730667-11.741867 5.188267-8.465067 3.822934 4.9152z m-754.210134 10.6496c1.911467 4.9152-4.369067 18.568533-9.284266 20.206934-2.730667 0.8192-3.2768-1.365333-1.6384-9.284267 0.8192-6.007467 2.4576-11.4688 3.003733-12.834133 1.911467-3.2768 6.280533-2.184533 7.918933 1.911466z m19.387734 48.3328c3.003733 3.003733 1.6384 13.380267-1.911467 13.380267-1.365333 0-3.549867-3.822933-5.188267-8.192-3.003733-8.738133 0.8192-11.4688 7.099734-5.188267zM122.88 452.1984c0 6.280533-1.092267 9.0112-3.003733 7.918933-3.003733-1.911467-26.760533 3.2768-30.583467 6.826667-1.092267 1.092267 3.2768 3.549867 10.376533 5.461333 11.195733 3.003733 13.1072 3.003733 17.749334-1.365333 5.461333-4.9152 5.461333-4.642133 5.461333 5.461333 0 8.192-0.8192 9.557333-3.549867 7.099734-2.730667-2.184533-7.3728-1.6384-18.295466 1.911466-8.192 2.730667-13.380267 6.007467-11.4688 6.826667 8.192 5.188267 26.2144 9.8304 28.945066 7.645867 2.184533-1.6384 3.2768 2.730667 3.822934 15.5648 0.273067 11.741867-0.273067 16.930133-1.911467 14.472533-1.6384-2.730667-6.826667-3.2768-19.114667-2.4576-20.48 1.365333-27.306667 6.5536-23.210666 17.749333 2.4576 7.099733 3.549867 7.645867 20.753066 8.465067 13.653333 0.546133 19.114667-0.273067 22.391467-3.549867 4.096-4.096 4.369067-3.822933 4.369067 4.642134 0 6.007467-0.8192 7.918933-2.4576 5.461333-1.6384-3.003733-6.5536-3.2768-20.206934-1.911467-15.837867 1.6384-18.295467 1.365333-23.483733-3.822933-5.7344-5.7344-7.645867-20.206933-3.549867-27.0336 3.003733-4.369067 18.295467-8.738133 31.1296-8.738133 5.461333 0 10.922667-1.365333 11.741867-2.730667 3.2768-5.188267-4.096-10.376533-25.941333-18.0224-12.014933-4.369067-21.845333-8.738133-21.845334-9.557333 0-1.092267 5.461333-3.2768 12.288-5.188267s13.1072-4.369067 13.653334-5.7344c0.8192-1.092267-4.642133-4.096-12.288-6.5536-7.3728-2.4576-13.653333-4.9152-13.653334-5.461333s10.103467-4.096 22.664534-8.192c12.288-4.096 23.483733-9.0112 25.122133-11.195734 3.822933-5.461333 4.096-4.9152 4.096 6.007467z m786.432 6.280533c10.6496 6.280533 28.672 7.645867 30.856533 2.184534 0.8192-1.6384 1.365333 1.6384 1.365334 7.645866s-0.546133 9.284267-1.365334 7.3728c-2.4576-6.280533-16.930133-3.549867-30.583466 6.280534-7.3728 5.461333-14.199467 11.195733-15.018667 13.1072-0.546133 1.911467-1.365333-2.184533-1.365333-9.0112 0-7.918933 0.546133-10.922667 2.184533-8.465067 1.911467 3.003733 4.369067 2.4576 12.288-3.2768l10.103467-6.5536-10.103467-6.007467c-7.918933-4.9152-10.6496-5.188267-12.288-2.4576-1.6384 2.184533-2.4576 0.273067-2.4576-5.7344 0-8.192 0.546133-8.738133 3.549867-5.188266 1.6384 2.4576 7.645867 7.099733 12.834133 10.103466z m17.476267 43.963734c11.195733 0 15.291733 4.096 15.291733 15.5648 0 28.125867-27.8528 40.1408-45.056 19.387733-5.7344-6.826667-6.826667-10.6496-6.280533-21.572267 0.8192-12.561067 1.365333-13.380267 8.192-13.380266h7.3728l-6.5536 6.826666c-8.738133 8.465067-8.738133 15.837867 0.273066 22.9376 15.5648 12.288 40.686933 3.549867 38.775467-13.380266-0.546133-5.461333-2.4576-7.099733-10.103467-7.645867-5.461333-0.546133-10.103467 0.546133-11.4688 2.730667-1.6384 2.184533-2.184533-0.546133-2.184533-7.3728 0-6.007467 0.8192-9.284267 1.6384-7.645867 0.546133 1.911467 5.188267 3.549867 10.103467 3.549867z m2.4576 60.347733c8.192 9.0112 9.284267 15.5648 3.2768 26.760533-4.642133 9.284267-9.0112 11.195733-23.483734 11.195734-25.941333 0-34.133333-32.494933-11.195733-45.056 10.103467-5.461333 22.1184-2.730667 31.402667 7.099733z m-798.446934 18.568533c0.273067 2.730667-0.8192 3.003733-3.003733 0.8192-1.911467-1.6384-6.826667-2.184533-10.922667-1.365333-6.007467 1.092267-7.645867 3.003733-7.645866 8.738133 0 10.922667 3.549867 14.472533 12.014933 12.288 3.822933-0.8192 8.465067-3.822933 9.8304-6.280533 2.184533-3.549867 2.4576-3.003733 2.730667 3.003733 0 3.822933 0.8192 9.284267 1.6384 11.741867 1.6384 4.096 1.092267 4.096-3.2768 1.365333-6.826667-4.369067-43.963733 2.730667-42.5984 7.918934 0.273067 1.911467-0.546133 2.730667-2.184534 1.6384-1.365333-0.8192-2.730667-5.188267-2.730666-9.557334 0-6.280533 0.8192-7.3728 5.461333-6.280533 3.003733 0.8192 8.465067 0.8192 12.014933-0.273067 6.007467-1.365333 6.280533-2.184533 3.822934-12.014933-2.4576-9.8304-3.003733-10.376533-12.014934-9.284267-6.280533 0.8192-9.284267 2.730667-9.557333 5.7344-0.273067 6.826667-4.642133-5.188267-4.9152-13.380266-0.273067-5.188267 0.546133-5.7344 2.184533-3.003734 2.184533 3.2768 5.7344 3.549867 22.664534 0.8192 11.4688-1.6384 20.48-4.369067 21.026133-6.5536 1.365333-3.549867 4.9152 6.007467 5.461333 13.9264z m792.712534 31.402667c4.369067 3.2768 4.369067 4.642133 0.273066 19.6608-2.4576 8.738133-5.461333 17.2032-6.826666 18.8416-1.6384 1.6384-2.184533 1.365333-1.6384-1.092267 1.092267-4.642133-28.672-14.7456-38.229334-13.1072-5.461333 1.092267-6.280533 0.273067-4.9152-4.642133 0.8192-3.003733 1.6384-7.3728 1.6384-9.557333 0-3.2768 0.546133-3.2768 3.549867 0.273066 3.822933 5.188267 33.041067 14.199467 38.5024 12.288 6.280533-2.4576 7.918933-15.5648 2.730667-21.2992-5.188267-6.007467-2.184533-6.826667 4.9152-1.365333z m-802.269867 21.2992c12.834133 1.6384 23.483733 3.822933 23.483733 4.9152 0 0.8192-8.465067 8.192-19.114666 16.110933-10.376533 8.192-19.114667 16.657067-19.114667 18.8416 0 6.280533-4.369067 0.8192-6.5536-8.192-1.365333-6.007467-0.8192-6.826667 3.2768-5.7344 7.3728 1.911467 11.741867-4.9152 9.0112-14.472533-2.184533-8.738133-12.834133-12.561067-16.930133-6.007467-1.911467 2.730667-2.4576 2.4576-2.4576-1.092266 0-2.4576-0.8192-6.826667-1.911467-9.557334-1.6384-4.096-1.092267-4.369067 2.4576-1.365333 2.4576 1.911467 15.018667 4.9152 27.8528 6.5536z m780.151467 23.7568c11.195733 11.4688 10.922667 24.576-0.8192 34.4064-7.099733 6.007467-10.6496 7.099733-18.295467 5.7344-21.845333-3.549867-31.1296-28.125867-15.5648-41.506133 10.6496-9.284267 24.302933-8.738133 34.679467 1.365333zM152.917333 669.2864c0 0.8192-3.549867 10.376533-7.918933 21.2992-4.642133 10.6496-7.645867 19.387733-6.826667 19.387733 3.822933 0 22.9376-11.4688 25.122134-15.018666 1.911467-3.549867 2.730667-3.2768 5.461333 2.4576 2.4576 5.7344 2.4576 6.5536-0.8192 5.461333-2.184533-1.092267-12.288 2.730667-22.1184 8.192-10.103467 5.7344-18.8416 9.557333-19.6608 8.738133-0.8192-0.8192 2.4576-10.6496 7.3728-22.1184 4.642133-11.195733 8.465067-20.753067 8.465067-21.572266 0-0.546133-6.826667 2.4576-15.018667 6.826666-11.195733 6.280533-14.472533 9.284267-13.1072 12.834134 2.184533 5.7344 0.546133 4.096-5.461333-5.7344-4.9152-7.3728-4.9152-7.645867 1.365333-6.007467 8.738133 2.184533 36.590933-15.018667 35.771733-22.1184-0.273067-4.9152-0.273067-4.9152 3.549867 0 2.184533 3.003733 3.822933 6.280533 3.822933 7.3728z m700.142934 22.664533c-1.092267 3.003733 4.642133 7.3728 19.933866 15.018667 22.9376 11.4688 22.9376 11.741867-3.2768 16.657067-9.0112 1.6384-18.295467 3.549867-20.48 4.369066-5.461333 1.911467 18.8416 15.291733 25.122134 13.9264 5.7344-1.6384 5.7344-1.365333 1.6384 7.645867-2.730667 6.007467-3.549867 6.5536-4.9152 2.730667-0.8192-2.4576-9.0112-8.465067-18.0224-13.653334-15.291733-8.738133-16.930133-9.0112-22.391467-5.188266-3.2768 2.184533-6.007467 5.7344-6.007467 7.3728 0 1.911467 7.645867 8.465067 17.2032 14.7456 12.288 8.192 17.749333 10.376533 20.48 8.465066 5.7344-4.9152 3.549867 1.365333-3.822933 10.103467-3.549867 4.369067-6.007467 6.280533-5.188267 4.096 0.8192-2.730667-1.6384-6.5536-6.5536-10.376533l-8.192-6.007467-6.007466 8.738133-6.280534 8.465067 7.645867 6.5536c6.007467 5.188267 8.465067 5.7344 11.4688 3.2768 5.7344-4.642133 4.642133-1.911467-3.2768 8.738133-4.096 5.188267-6.5536 7.3728-5.7344 4.9152 1.092267-3.003733-3.2768-7.645867-14.472533-15.837866-20.206933-13.9264-28.672-15.291733-17.2032-2.184534 4.642133 4.9152 4.642133 4.9152-2.4576 1.6384-6.280533-2.730667-8.465067-2.4576-14.472534 1.365334-9.557333 6.280533-9.0112 18.0224 0.8192 29.218133 12.561067 13.9264 27.8528 10.922667 33.041067-6.826667l2.4576-8.465066 0.273067 7.645866c0.273067 9.284267-12.834133 23.7568-21.572267 23.7568-7.918933 0-21.026133-7.099733-24.576-13.380266-1.365333-3.003733-2.730667-9.8304-2.730667-15.291734 0-9.284267 3.003733-13.9264 16.930134-24.849066 2.184533-1.911467 6.5536-6.826667 9.8304-10.922667 3.549867-4.9152 5.7344-6.280533 6.007466-3.822933 0 2.4576 3.2768 6.280533 7.3728 8.738133 7.3728 4.369067 7.645867 4.369067 13.653334-3.822933l6.007466-8.465067-6.826666-5.188267c-3.549867-3.003733-8.465067-4.642133-10.922667-3.822933-3.2768 1.365333-3.2768 0 0.8192-6.5536 8.192-13.9264 19.387733-24.576 25.941333-24.849067 3.549867 0 12.561067-1.6384 19.933867-3.549866l13.653333-3.2768-13.9264-7.099734c-10.376533-5.461333-14.7456-6.5536-17.2032-4.096-3.822933 3.822933-3.822933 1.365333 0.273067-7.645866 3.2768-7.099733 8.738133-9.8304 6.007467-3.003734zM193.058133 742.741333c5.461333 6.5536 5.461333 7.3728 1.365334 6.5536-7.099733-1.911467-31.675733 24.029867-29.4912 30.856534 2.4576 7.645867 12.834133 12.014933 19.6608 8.465066 9.0112-4.9152 25.3952-22.1184 24.029866-25.122133-0.8192-1.6384 3.003733 1.911467 8.192 7.918933l9.8304 10.922667-1.6384 23.210667-1.365333 23.210666 9.557333-10.922666c5.461333-6.007467 9.8304-12.561067 9.8304-14.472534 0-4.369067 9.284267 1.911467 26.2144 17.749334 6.280533 5.7344 13.653333 12.014933 16.384 13.9264 4.369067 3.003733 4.369067 3.2768 0.546134 2.184533s-4.9152 1.092267-6.280534 11.4688c-1.092267 7.099733-2.4576 15.018667-3.2768 17.476267-1.911467 7.099733 1.092267 6.007467 15.837867-5.188267 10.103467-7.645867 12.561067-10.922667 10.103467-13.653333-4.369067-5.188267 0-4.369067 8.738133 1.911466 4.369067 3.2768 14.7456 8.738133 22.9376 12.561067 14.199467 6.280533 18.0224 10.922667 13.380267 15.5648-0.8192 1.092267-3.003733-0.8192-4.642134-4.096-1.6384-3.003733-5.7344-6.826667-9.0112-7.918933-5.188267-1.911467-6.826667-0.8192-10.376533 5.7344-3.822933 7.3728-3.822933 8.192 1.365333 10.922666 3.2768 1.6384 8.192 2.184533 10.922667 1.365334 4.9152-1.6384 5.188267-1.092267 2.4576 5.188266-3.2768 6.826667-8.465067 10.103467-7.3728 4.096 0.546133-1.6384-1.911467-4.642133-5.188267-7.099733-5.461333-3.822933-6.280533-3.549867-10.103466 4.369067-5.7344 10.6496-5.7344 10.376533 3.822933 15.291733 6.5536 3.2768 9.557333 3.549867 14.472533 1.092267 6.007467-3.2768 6.007467-3.2768 1.092267 2.4576l-4.9152 5.461333-15.5648-6.826667c-14.472533-6.5536-27.0336-14.199467-16.657067-10.376533 3.549867 1.365333 6.5536-2.4576 13.1072-16.657067 13.9264-30.037333 6.5536-33.860267-22.664533-11.741866-10.103467 7.645867-19.114667 13.380267-19.933867 12.561066-0.546133-0.8192 0-10.103467 1.6384-20.753066 3.822933-24.302933 3.822933-28.125867-0.546133-34.133334-3.2768-4.369067-4.642133-3.549867-15.5648 10.922667-6.5536 8.738133-11.741867 18.0224-11.741867 20.753067 0.546133 4.369067-0.273067 4.096-7.645866-1.092267-9.0112-6.826667-9.284267-7.099733-4.096-6.5536 4.096 0.273067 26.2144-27.0336 26.2144-32.768 0-1.6384-1.911467-4.642133-4.369067-6.5536-3.549867-3.2768-6.5536-1.092267-20.48 13.9264l-16.384 17.476267 1.365333-25.668267 1.6384-25.941333-8.465066 8.192c-4.642133 4.369067-10.103467 11.195733-11.741867 15.5648l-3.2768 7.645866-5.461333-6.007466c-2.730667-3.549867-3.822933-5.461333-2.184534-4.369067 1.6384 0.8192 9.284267-4.9152 17.2032-12.834133 11.4688-11.4688 14.199467-15.837867 12.561067-20.48-2.4576-8.192-5.7344-7.3728-19.6608 5.188266-14.472533 12.834133-21.845333 13.653333-31.9488 3.822934-10.376533-10.6496-9.0112-17.2032 6.5536-32.494934 7.645867-7.3728 13.1072-15.018667 12.288-16.930133-2.184533-6.007467 2.4576-3.549867 8.738133 4.642133z m573.44 72.9088c0.8192 1.911467-0.8192 2.730667-3.822933 1.911467-2.730667-0.546133-7.918933 1.092267-11.4688 4.096l-6.5536 5.188267 5.188267 6.826666c4.369067 5.188267 6.5536 6.280533 10.376533 4.096 2.4576-1.365333 5.461333-4.9152 6.5536-7.645866 1.6384-4.369067 2.4576-4.096 7.099733 2.184533 4.9152 6.280533 4.9152 6.826667 0.546134 5.188267-5.7344-2.184533-15.291733 2.4576-15.291734 7.3728 0 1.911467 2.730667 6.007467 6.280534 9.284266 5.7344 5.461333 6.280533 5.461333 12.014933 1.092267 3.2768-2.4576 7.099733-7.645867 8.465067-11.195733 2.4576-6.5536 2.4576-6.5536 3.822933-0.8192 1.365333 4.642133-1.365333 7.918933-13.1072 16.930133-16.384 12.288-17.476267 12.834133-15.837867 6.007467 1.6384-6.280533-22.391467-36.864-27.0336-34.4064-5.188267 3.003733-1.365333-0.546133 11.741867-10.922667 12.288-9.557333 19.114667-11.195733 21.026133-5.188267z m-32.494933 23.210667c5.188267 5.188267 3.822933 7.918933-1.911467 4.369067-4.096-2.4576-6.280533-2.4576-9.557333 0.273066-3.549867 3.003733-3.003733 5.188267 4.096 17.476267 4.642133 7.918933 10.376533 16.110933 13.1072 18.568533 4.9152 3.822933 4.642133 4.369067-3.003733 8.738134-7.3728 4.369067-8.192 4.369067-6.5536 0.273066 1.092267-2.4576-2.4576-11.4688-8.738134-21.572266-8.465067-14.472533-11.195733-16.930133-15.018666-14.7456-2.4576 1.6384-4.642133 5.461333-4.642134 8.738133-0.273067 5.461333-0.273067 5.7344-3.003733 1.092267-3.549867-6.280533-1.911467-8.192 15.837867-18.568534 15.018667-9.0112 15.018667-9.0112 19.387733-4.642133z m-350.890667 45.329067c8.465067 7.3728 4.096 19.6608-7.099733 19.6608-3.822933 0-4.642133 1.092267-3.2768 4.642133 1.092267 2.730667 2.730667 7.3728 3.549867 10.376533 0.546133 3.003733 3.2768 7.645867 5.461333 10.103467 4.642133 5.7344 1.092267 6.5536-5.7344 1.365333-3.549867-2.4576-12.834133-22.9376-12.834133-28.125866 0-0.546133 2.184533-1.092267 5.188266-1.092267 11.741867 0 14.199467-16.930133 3.003734-19.933867-4.096-1.092267-5.7344 0.546133-7.099734 7.3728-2.730667 11.195733-2.4576 10.103467-6.007466 18.8416-4.096 9.8304-4.096 15.5648 0 15.5648 1.6384 0 2.4576 0.546133 1.6384 1.365334-0.546133 0.8192-6.007467-0.273067-12.014934-2.4576-5.7344-2.184533-8.738133-4.096-6.007466-4.096 6.280533-0.273067 19.387733-39.3216 14.7456-43.963734-4.096-4.369067 20.48 5.461333 26.487466 10.376534z m288.085334-8.192c0.8192 3.003733 0 3.2768-3.822934 1.092266-3.2768-1.6384-7.645867-1.6384-11.741866-0.273066-5.188267 2.184533-6.007467 3.822933-4.369067 10.103466 2.184533 9.284267 2.4576 9.557333 9.284267 7.3728 3.2768-0.8192 5.7344-3.822933 6.007466-6.280533 0-3.822933 0.546133-3.549867 2.4576 0.8192 3.549867 8.465067 3.2768 12.288-1.365333 10.6496-2.184533-1.092267-5.7344-1.092267-7.918933-0.273067-5.188267 2.184533 0 20.48 6.280533 21.572267 2.4576 0.546133-0.273067 2.184533-5.7344 3.822933-8.192 2.730667-9.8304 2.4576-8.465067-0.546133 0.8192-2.184533-1.365333-12.288-4.369066-22.9376-4.369067-13.653333-7.099733-19.114667-10.6496-19.387733-2.4576 0 1.6384-2.4576 9.0112-5.188267 15.291733-5.7344 23.483733-6.007467 25.3952-0.546133z m-43.963734 15.5648c3.549867 2.4576 7.645867 9.0112 9.284267 14.7456 7.645867 25.3952-20.206933 43.4176-38.775467 25.122133-21.572267-21.572267 4.9152-57.070933 29.4912-39.867733z m-202.615466 1.6384c1.092267 1.6384 3.2768 2.184533 5.188266 1.6384 2.184533-0.8192 3.003733 1.092267 2.184534 6.5536-1.365333 9.284267-5.188267 10.376533-6.5536 2.184533-1.365333-9.0112-9.284267-13.1072-14.7456-7.645867-3.822933 4.096-3.2768 5.461333 6.826666 17.2032 12.834133 14.7456 12.834133 14.7456 6.826667 22.9376-4.642133 6.826667-9.284267 7.3728-22.1184 2.730667-9.284267-3.2768-10.103467-5.461333-6.280533-14.472533 2.184533-5.461333 2.4576-5.188267 2.4576 0.273066 0.273067 7.645867 6.5536 12.561067 14.199466 11.4688 9.557333-1.365333 9.0112-6.280533-1.365333-18.0224-10.103467-11.195733-12.288-18.8416-6.5536-24.576 4.096-4.096 17.476267-4.369067 19.933867-0.273066z m30.037333 4.096c3.003733 1.365333 3.549867 2.4576 1.365333 3.822933-1.6384 1.092267-4.369067 10.922667-5.7344 21.845333-2.184533 15.837867-2.184533 20.48 0.8192 22.391467 2.4576 1.911467 1.365333 2.184533-3.2768 1.092267-3.822933-0.8192-8.738133-1.6384-10.922666-1.6384-3.003733 0-3.2768-0.546133-0.8192-2.184534 1.911467-1.092267 4.642133-11.195733 6.5536-22.1184 2.4576-16.384 2.184533-20.48-0.8192-22.391466-4.369067-3.003733 5.7344-3.549867 12.834133-0.8192z m69.905067 6.5536c-3.003733 1.6384-2.4576 3.822933 2.4576 10.922666l6.280533 9.0112 5.188267-6.280533c3.003733-3.549867 4.642133-8.738133 4.096-11.4688-0.8192-3.003733 0-4.9152 2.184533-4.9152 1.911467 0 6.007467-0.8192 8.738133-1.911467 4.369067-1.365333 4.096-0.8192-0.8192 4.9152-16.110933 18.0224-21.2992 33.860267-13.1072 41.7792 3.822933 4.096 3.2768 4.369067-7.645866 4.369067-9.557333-0.273067-10.922667-0.8192-6.826667-3.003733 6.5536-3.822933 4.096-15.837867-7.099733-31.402667-9.0112-12.561067-12.834133-15.018667-12.834134-7.3728 0 4.096-0.546133 3.822933-5.461333-0.546133-9.8304-9.0112-13.653333-3.549867-13.653333 18.8416 0 13.653333 1.092267 20.753067 3.549866 21.572266 1.6384 0.8192-1.6384 1.6384-7.645866 1.6384s-9.557333-0.8192-7.918934-1.911466c1.911467-1.092267 3.549867-11.4688 4.369067-23.210667 0.8192-19.114667 0.546133-21.026133-4.369067-21.026133-2.730667 0-6.826667 2.184533-9.0112 4.642133-3.822933 4.642133-3.822933 4.642133-2.4576 0 0.8192-2.730667 1.6384-6.007467 1.6384-6.826667 0-1.092267 14.472533-1.6384 31.9488-1.092266 18.568533 0.546133 30.3104 1.911467 28.398934 3.2768z" fill="#00489A" p-id="4562"></path><path d="M432.810667 74.5472c-1.092267 2.730667-1.365333 5.7344-0.273067 6.5536 2.730667 2.730667 4.9152-1.092267 3.549867-6.5536-1.092267-4.642133-1.092267-4.642133-3.2768 0zM255.317333 169.301333c-0.8192 1.365333-0.273067 2.730667 1.092267 2.730667 1.6384 0 3.003733-1.365333 3.003733-2.730667 0-1.6384-0.546133-2.730667-1.092266-2.730666-0.8192 0-2.184533 1.092267-3.003734 2.730666z" p-id="4563"></path><path d="M600.746667 253.952c-64.989867 24.302933-99.1232 44.782933-140.356267 84.3776-70.178133 67.9936-105.403733 133.5296-105.403733 194.9696 0.273067 46.421333 27.306667 89.019733 66.901333 105.403733 32.768 13.653333 91.477333 16.110933 139.264 5.461334 29.764267-6.5536 96.938667-30.583467 96.938667-34.679467 0-1.092267-11.4688-1.6384-25.668267-1.092267-68.266667 2.4576-114.688-30.3104-128.887467-91.204266-16.384-69.905067 14.472533-163.0208 74.001067-223.095467 13.9264-14.199467 45.602133-41.233067 58.436267-50.244267 0.546133-0.546133 0.546133-1.092267 0-1.6384-0.546133-0.546133-16.384 4.9152-35.2256 11.741867z" fill="#00489A" p-id="4564"></path><path d="M362.359467 319.214933c-67.447467 37.956267-117.418667 98.577067-134.621867 163.84-6.826667 26.2144-12.288 71.2704-10.376533 89.019734 6.5536 64.989867 40.96 108.680533 96.938666 123.153066 22.9376 6.007467 65.262933 3.822933 100.7616-5.461333 25.122133-6.280533 74.274133-25.668267 80.2816-31.675733 1.911467-1.911467-6.007467-2.730667-25.941333-2.730667-51.336533 0-80.827733-10.376533-108.407467-37.410133-16.384-16.110933-31.675733-45.329067-36.0448-68.8128-11.4688-60.347733 7.099733-140.9024 50.244267-218.453334 6.826667-12.561067 12.288-23.210667 11.741867-23.7568-0.546133-0.546133-11.4688 5.188267-24.576 12.288zM719.530667 406.596267c-12.014933 2.730667-33.5872 9.557333-47.786667 15.291733-34.4064 13.653333-100.488533 46.6944-123.6992 61.713067-10.103467 6.5536-24.029867 15.5648-30.856533 19.933866-6.826667 4.096-11.741867 8.465067-10.922667 9.0112 0.8192 0.8192 10.6496-0.546133 22.1184-3.2768 70.4512-15.5648 119.6032 6.007467 138.171733 60.6208 19.933867 58.709333-6.5536 127.522133-77.550933 202.069334-21.845333 22.664533-25.941333 28.125867-20.206933 26.760533 4.9152-1.365333 7.3728-0.8192 7.3728 1.365333 0 1.911467 8.738133-4.642133 19.6608-13.9264 10.6496-9.557333 18.8416-15.291733 17.749333-12.561066-1.092267 3.003733-2.730667 8.192-3.549867 12.014933-1.6384 6.280533-1.365333 6.5536 3.549867 3.822933 5.7344-2.730667 16.384-14.199467 27.579733-28.945066 3.2768-4.642133 5.188267-6.007467 4.369067-3.549867-3.822933 10.6496 1.6384 3.822933 12.288-15.5648 6.280533-11.195733 11.741867-20.48 12.561067-20.48 1.365333 0-5.461333 16.657067-12.561067 30.583467-5.7344 11.4688-3.003733 14.472533 3.003733 3.549866 2.4576-4.642133 4.642133-6.007467 6.826667-4.096 3.822933 3.003733 6.826667 0 19.933867-19.6608 6.826667-9.8304 9.8304-12.288 14.199466-11.195733 10.103467 2.730667 22.9376-15.291733 33.860267-46.421333 0.8192-2.730667 2.730667-4.369067 4.096-3.549867s3.003733-1.092267 3.822933-4.369067c1.092267-3.2768 2.4576-5.188267 3.2768-4.369066 1.092267 0.8192 0.546133 4.096-0.8192 6.826666-4.096 7.645867-6.826667 28.125867-3.822933 28.125867 6.007467 0 21.572267-13.380267 29.764267-25.3952 17.749333-26.487467 39.048533-93.661867 43.963733-140.0832 4.096-36.864 0.273067-65.809067-11.741867-90.385067-11.195733-22.391467-21.572267-31.402667-42.325333-36.0448-15.5648-3.549867-16.110933-3.549867-42.325333 2.184534z" fill="#00489A" p-id="4565"></path><path d="M152.917333 309.930667c1.911467 2.184533 5.461333 4.096 7.918934 4.096 3.549867-0.273067 3.549867-0.8192-0.8192-4.096-7.099733-5.188267-11.4688-5.188267-7.099734 0zM147.456 321.1264c0 2.184533 1.365333 3.2768 2.730667 2.4576 1.6384-0.8192 2.730667-2.730667 2.730666-4.369067 0-1.365333-1.092267-2.4576-2.730666-2.4576-1.365333 0-2.730667 1.911467-2.730667 4.369067z" p-id="4566"></path><path d="M886.101333 308.565333c-0.8192 1.6384 0.273067 1.911467 2.4576 1.092267 4.9152-1.911467 5.7344-3.822933 1.911467-3.822933-1.6384 0-3.549867 1.092267-4.369067 2.730666zM891.835733 566.8864c-10.922667 10.6496 1.6384 25.668267 21.572267 25.668267 6.280533 0 12.834133-1.6384 14.199467-3.549867 6.280533-7.918933 6.280533-13.1072-0.546134-19.933867-7.918933-7.918933-28.398933-9.284267-35.2256-2.184533zM114.688 641.979733c0 7.645867 5.461333 9.0112 11.4688 3.003734 5.461333-5.188267 5.461333-5.188267-3.003733-6.5536-6.826667-1.092267-8.465067-0.273067-8.465067 3.549866zM865.621333 661.9136c-5.188267 6.5536-1.911467 16.110933 7.918934 22.664533 11.195733 7.645867 22.391467 8.192 28.398933 1.365334 6.826667-7.3728 5.7344-12.834133-3.822933-20.753067-9.557333-7.918933-27.0336-9.8304-32.494934-3.2768zM602.658133 895.112533c-5.7344 6.280533-6.007467 17.476267-0.273066 29.218134 4.642133 9.8304 10.376533 12.561067 19.387733 9.284266 10.922667-4.096 11.195733-22.664533 0.546133-36.590933-6.5536-8.192-13.380267-8.738133-19.6608-1.911467z" fill="#00489A" p-id="4567"></path><path d="M3783.8848 97.4848c-0.436907 70.669653-54.55872 21.244587-89.2928 40.413867 4.232533 15.264427 77.469013 14.117547 47.5136 40.96-5.925547 3.495253-22.227627 24.00256-25.668267 12.014933-7.7824-17.394347-52.0192-56.251733-73.454933-60.893867-44.537173-5.789013 54.367573 62.17728 41.7792 86.289067-17.69472-2.184533-29.24544-38.147413-56.5248-30.55616 6.144 28.91776 47.322453 117.200213 74.5472 114.688 12.752213-14.82752-1.092267-9.25696 0-24.576 1.39264-30.419627 19.715413 19.797333 53.248 6.826667 0.791893-38.17472-41.560747-72.198827 10.6496-88.746667-57.7536 101.33504 112.831147 98.413227 67.1744-4.369067-14.199467-12.45184 25.668267-24.41216 39.594667-28.398933 29.108907 9.639253-16.902827 57.043627-20.48 75.3664-22.500693 56.907093-112.64 59.992747-150.186667 97.211733 38.33856 50.107733 158.76096-100.352 103.765333 11.741867-22.528 31.402667-72.635733 43.362987-106.769066 64.170667-30.55616 19.551573-70.751573 24.521387-98.030934 43.390293 0.8192 23.374507 75.093333 56.251733 90.658134 27.579733 128.314027-131.017387 105.731413-80.909653 101.034666 52.4288-8.792747 7.427413-103.410347 0.49152-49.698133 24.029867 12.94336-8.192 94.562987 42.816853 97.757867-4.369067 9.721173-61.0304-40.1408-151.770453 3.549866-181.8624 19.524267-4.450987-2.921813 45.21984 17.476267 35.2256 38.966613-13.462187 87.681707-51.500373 17.749333-69.085866-11.414187-0.791893-16.438613-12.806827-24.576-3.2768-0.054613 6.417067-4.42368-6.63552-6.280533-0.8192 3.76832-9.8304 35.252907-28.699307 48.3328-42.052267 19.2512-13.407573-10.540373-20.288853-17.476267-31.9488-21.05344-35.30752 54.422187-51.03616 69.632-68.539733 20.206933-102.864213-74.902187-75.967147-125.610666-36.317867-8.956587-2.29376 27.634347-29.955413 6.007466-36.317867-11.8784-7.563947-32.549547-28.453547-46.421333-20.206933z m26.760533 125.3376c2.676053 10.07616-16.657067 13.052587-15.018666 3.2768-2.53952-17.640107 12.506453-23.128747 15.018666-3.2768zM2055.918933 116.599467c-14.90944 3.85024-10.130773 52.565333-30.3104 51.336533-7.591253-7.400107-14.25408-31.184213-29.764266-24.576-13.380267 1.829547 15.40096 36.154027 3.2768 50.517333-4.58752-6.06208-4.58752-10.97728-10.376534-19.114666-13.134507-25.449813-31.976107 16.22016-22.664533 27.306666 7.400107 3.11296-7.099733 21.95456-12.014933 24.576-54.121813 43.308373-111.57504 32.058027-9.0112 64.989867 1.55648 21.408427-17.667413 29.9008-17.2032 54.0672-11.277653 13.27104-42.10688 23.538347-16.657067 47.240533 21.7088 41.424213 64.88064-41.997653 71.2704 0.273067 2.512213 16.520533-21.490347 17.831253-33.5872 19.114667-9.0112 0.273067-12.561067 1.6384-16.384 7.099733-22.500693 24.849067 42.1888 12.424533 36.317867 25.3952-6.935893 13.981013-16.493227 26.350933-29.218134 37.137067-23.156053 17.913173 31.566507 17.831253 33.5872 5.188266 18.049707-13.325653 29.846187-36.590933 42.052267-55.432533 24.90368-9.857707 85.251413-21.681493 83.012267-59.8016 3.2768-11.4688-47.732053-8.710827-52.701867-6.007467-11.004587 5.379413 29.24544-45.738667 4.096-55.7056-22.145707-10.97728 6.144-18.868907 13.653333-23.483733 26.29632-17.640107 3.304107-55.241387-30.3104-45.056-8.328533-21.681493 26.651307-45.62944 39.594667-69.632 17.394347-15.837867 18.59584-74.62912-16.657067-55.432533zM1985.194667 263.7824c19.114667 30.583467-51.309227 15.701333-25.668267 3.822933 10.540373-5.57056 17.503573-19.961173 25.668267-3.822933z m15.291733 53.248c8.76544 5.625173-29.272747 15.81056-26.2144 6.007467-3.249493-12.997973 21.572267-8.76544 26.2144-6.007467zM1985.194667 354.986667c-0.600747 10.07616-20.48 9.74848-24.576 6.007466 5.297493-1.72032 36.727467-28.726613 24.576-6.007466z m57.344 19.114666c-2.12992 2.62144 14.49984 7.891627 7.918933 7.918934-6.744747 1.092267-11.250347 11.14112-18.295467 12.561066-14.690987 4.560213 6.990507-35.034453 10.376534-20.48zM1449.984 122.88c-23.374507 10.540373 5.625173 26.023253 5.461333 51.6096 8.164693 29.682347 15.510187 87.954773 15.018667 134.621867-46.61248 17.803947-95.245653 32.11264-137.6256 54.0672-20.616533 11.113813-70.178133 13.43488-87.6544 34.952533 39.56736 56.907093 90.466987 9.50272 131.072-15.837867 8.465067 8.546987-21.108053 72.99072 1.365333 73.728 22.910293 16.13824 39.3216-10.40384 49.152-31.402666 15.346347-28.59008 16.493227-12.670293 19.933867 1.911466 6.935893 8.820053 7.400107 14.99136-6.5536 27.8528-48.797013 42.461867-107.23328 68.4032-167.662933 89.019734-91.641173 43.799893 77.824 56.142507 115.780266-5.461334 26.159787-14.82752 74.38336-60.04736 95.300267-73.728 14.527147-29.9008 37.164373-5.188267 42.871467 17.749334 63.460693 177.43872 99.28704-23.92064 66.901333-95.0272-4.805973-11.4688-7.482027-7.591253-13.653333-14.7456-21.681493-22.910293-6.280533 77.632853-17.476267 72.9088-12.479147-21.818027-75.776-124.19072-27.579733-125.883734 17.36704-1.96608 29.9008-35.444053 1.6384-33.5872-14.936747-4.096-25.094827 20.206933-26.487467-1.092266-6.280533-51.554987 32.139947-182.408533-59.8016-161.655467z m32.494933 232.925867c0.32768 16.520533 23.83872 69.413547-3.549866 46.967466-40.031573-41.096533-7.673173-91.149653 3.549866-46.967466zM1433.6 368.64c25.695573 41.61536-87.053653 14.90944-24.576 0 12.86144-2.512213 19.278507-15.07328 24.576 0zM1815.620267 139.810133c4.532907 16.575147-33.01376 181.971627 8.465066 119.057067 22.418773-29.955413 51.52768-101.444267-8.465066-119.057067zM2505.386667 143.906133c-11.79648 11.496107-147.647147 81.5104-117.1456 88.200534 11.168427 19.851947 40.523093-14.90944 47.5136-3.822934 0.873813 19.715413-28.808533 66.491733-39.3216 41.233067-6.47168-20.97152-59.009707-101.00736-51.063467-40.1408 4.314453 26.897067 4.642133 93.361493 39.867733 93.934933 3.795627 5.515947 12.096853-40.932693 18.8416-18.568533 3.085653 19.797333-23.59296 25.750187-8.465066 58.436267 9.74848 58.24512-35.170987 19.933867-1.911467 76.458666-8.546987 27.306667-25.367893 28.09856-1.6384 59.255467 13.216427 15.537493 83.339947-0.191147 95.573333 0.8192 23.483733-9.065813 97.675947 6.444373 51.882667-29.218133-11.4688-19.74272-30.365013-25.449813-61.986133-18.568534-64.197973 13.789867-11.578027-31.9488 6.007466-42.325333 21.13536-13.02528-13.18912-52.237653-31.402666-35.771733-18.486613 4.369067-9.366187-19.57888-3.2768-31.402667 8.710827-23.3472 51.77344-19.278507 52.4288-49.698133 6.335147-47.704747 38.25664-78.834347 72.362666-105.949867 25.941333-30.173867-44.373333-56.470187-68.266666-42.871467zM2493.098667 189.508267c-13.84448 6.38976-34.07872 96.802133-39.048534 71.2704 24.057173-33.778347-37.055147-60.78464 39.048534-71.2704zM3290.7264 149.640533c-4.696747 78.31552 39.7312 195.13344-72.362667 215.995734-12.315307 11.414187-87.135573 11.250347-78.097066 33.041066 22.992213 13.216427 38.693547 30.3104 65.536 35.498667 16.05632 4.041387 77.960533-68.457813 57.344-19.933867-24.849067 41.806507-66.43712 57.617067-109.226667 76.458667-26.733227 35.71712 99.36896 9.693867 104.8576-8.465067 31.074987-17.2032 51.554987-56.27904 67.1744-86.289066 8.465067-15.428267 9.229653-48.66048 29.218133-57.617067 27.19744-14.117547 49.07008-28.317013 78.6432-39.3216 33.83296-7.482027-18.377387-45.083307-31.9488-29.4912-97.757867 67.33824-17.885867-9.885013-43.690666-77.824-24.275627-17.640107-46.667093-47.213227-67.447467-42.052267zM1566.856533 198.519467c-17.2032 17.093973 27.579733 34.89792 2.184534 69.632-4.696747 29.16352 50.70848 14.226773 52.974933-8.465067 7.345493-35.79904-20.72576-68.130133-55.159467-61.166933zM2940.928 204.8c-44.045653 12.916053-57.480533 19.141973-115.234133 20.48-85.44256-5.07904-50.95424 18.568533-20.48 46.421333 39.40352 35.362133 88.664747-14.49984 126.976-26.760533 20.998827 14.445227-45.083307 66.792107-57.070934 85.469867-69.686613 84.514133-89.265493 79.435093-196.36224 100.7616-34.57024 7.017813 17.012053 41.04192 24.576 49.452373 22.910293 24.603307 50.107733 12.642987 70.178134-6.30784 39.07584-25.941333 82.16576-41.314987 126.976-57.344 23.319893-18.51392 195.29728-29.32736 114.414933-78.6432-23.156053-17.53088-123.589973 59.337387-106.796373 17.2032 25.06752-37.983573 60.86656-67.310933 91.7504-98.850133 64.443733-35.826347-39.7312-56.60672-58.927787-51.882667zM2279.8336 218.7264c-21.818027 20.015787-67.966293 29.928107-84.3776 52.4288 27.11552 34.051413 53.630293 27.088213 82.193067 1.911467 5.16096 28.09856 3.467947 92.050773-37.6832 97.211733-38.17472 4.778667-7.973547 51.11808 15.291733 35.2256 44.673707-28.125867-14.936747 58.190507-21.2992 69.632-23.26528 24.221013 61.085013 28.644693 64.989867 6.007467 10.704213-8.055467 7.973547-61.904213 16.384-63.351467 10.513067-16.001707 24.221013-45.38368 30.856533-60.074667-6.63552-18.732373-26.78784 13.27104-34.133333 18.295467-8.000853 2.648747 18.950827-31.020373 4.642133-38.775467-9.939627-7.427413 1.529173-28.2624-1.092267-28.672-3.549867 0-3.549867-0.273067 0-2.730666 2.075307-4.34176 6.5536-29.381973 12.834134-39.867734 21.62688-26.569387-28.945067-57.480533-48.605867-47.240533z" fill="#ffffff" p-id="4568"></path><path d="M1426.500267 245.213867c-20.23424 15.72864-43.25376 27.989333-67.9936 34.679466-48.7424 8.465067 34.843307 42.052267 51.336533 30.3104 20.753067-8.983893 26.678613-17.94048 43.690667-28.398933 10.349227-8.792747-15.537493-55.268693-27.0336-36.590933zM1804.151467 285.9008c8.164693 68.07552-18.75968 108.161707-26.760534 172.305067 0.8192 15.5648-3.549867 30.037333-10.922666 35.2256-18.705067 20.23424 11.851093 68.539733 41.233066 55.159466 15.373653 2.594133 16.984747-72.799573 18.295467-78.097066 13.1072-27.798187 17.6128-71.43424 28.125867-99.1232 10.540373-8.11008 37.983573-68.212053 6.5536-50.517334-15.346347 7.12704-27.989333-53.766827-56.5248-34.952533zM3343.9744 362.0864c2.348373 46.339413 37.492053 92.269227 61.166933 132.7104 11.004587 9.202347 142.103893-35.362133 124.5184-51.063467-47.486293 1.747627-70.260053 19.6608-119.6032-23.237973-16.520533-3.249493-51.554987-72.33536-66.082133-58.40896zM2025.335467 434.449067c-7.263573 7.072427 7.70048 22.145707 11.195733 29.4912 3.877547 3.713707-8.383147 8.84736 3.2768 19.387733 15.619413 14.90944-35.2256 12.36992-29.4912 31.675733 32.52224 11.987627 108.735147 5.24288 67.720533-48.059733-8.082773-16.110933-39.758507-43.936427-52.701866-32.494933zM1330.926933 436.360533c-9.120427 31.921493-67.33824 91.09504 12.561067 62.805334 27.006293-5.707093 9.803093-69.46816-12.561067-62.805334zM2072.576 711.338667c-7.099733 8.738133 3.549867 22.1184 13.1072 16.110933 9.284267-6.007467 6.007467-20.206933-4.9152-20.206933-2.730667 0-6.280533 1.911467-8.192 4.096zM2520.405333 711.338667c-7.099733 8.738133 3.549867 22.1184 13.1072 16.110933 9.284267-6.007467 6.007467-20.206933-4.9152-20.206933-2.730667 0-6.280533 1.911467-8.192 4.096zM2969.053867 705.877333c-12.561067 5.461333-19.933867 18.8416-19.933867 36.0448v14.472534h-9.557333c-8.465067 0-9.557333 0.8192-9.557334 6.826666s1.092267 6.826667 9.557334 6.826667h9.557333v98.304h16.384v-98.304h13.653333c12.834133 0 13.653333-0.546133 13.653334-6.826667s-0.8192-6.826667-13.9264-6.826666h-14.199467l1.6384-15.291734c1.911467-19.933867 7.645867-26.487467 21.572267-25.122133 9.0112 0.8192 10.376533 0.273067 10.376533-4.9152 0-9.8304-13.380267-12.014933-29.218133-5.188267zM1373.525333 786.432v81.92h16.384v-37.137067c0-41.506133 2.730667-51.336533 16.110934-59.255466 16.657067-9.8304 33.5872-3.822933 38.5024 13.9264 1.365333 5.461333 2.730667 26.487467 2.730666 46.148266V868.352h16.384v-42.325333c0-56.251733-4.642133-67.1744-31.1296-71.543467-12.014933-1.911467-32.768 5.461333-38.5024 13.653333-3.822933 5.461333-4.096 2.730667-4.096-28.945066V704.512h-16.384v81.92zM3383.296 786.432v81.92h16.384v-37.137067c0-41.506133 2.730667-51.336533 16.110933-59.255466 16.657067-9.8304 33.5872-3.822933 38.5024 13.9264 1.365333 5.461333 2.730667 26.487467 2.730667 46.148266V868.352h16.384v-42.325333c0-56.251733-4.642133-67.1744-31.1296-71.543467-12.014933-1.911467-32.768 5.461333-38.5024 13.653333-3.822933 5.461333-4.096 2.730667-4.096-28.945066V704.512h-16.384v81.92zM3765.589333 786.432v81.92h16.384v-163.84h-16.384v81.92zM1024.8192 715.9808c0.546133 1.911467 10.922667 37.137067 22.664533 78.097067l21.572267 74.5472 10.922667-0.8192 10.922666-0.8192 16.657067-59.528534c15.5648-55.432533 20.206933-68.8128 20.206933-58.9824 0 2.184533 7.099733 29.764267 15.837867 61.166934l16.110933 57.344 10.6496 0.8192 10.922667 0.8192 21.845333-78.097067 22.1184-77.824H1205.316267l-15.837867 60.347733c-15.837867 60.6208-20.206933 75.639467-20.48 67.9936 0-2.184533-7.645867-31.9488-16.930133-66.3552l-16.930134-61.986133h-17.476266l-18.8416 65.809067-18.568534 65.809066-9.284266-33.860266c-5.188267-18.568533-13.1072-47.786667-17.749334-64.989867l-8.738133-31.402667-10.6496-0.8192c-7.645867-0.8192-10.103467 0-9.0112 2.730667zM1797.3248 773.3248c0.8192 55.432533 1.365333 61.986133 6.5536 71.816533 10.376533 19.933867 32.221867 28.672 61.44 24.576 17.2032-2.4576 29.4912-10.922667 37.956267-25.941333 6.5536-12.014933 6.826667-14.199467 7.645866-71.816533l1.092267-59.255467H1892.352v55.978667c0 42.5984-0.8192 58.436267-3.822933 65.536-11.195733 26.760533-54.613333 27.306667-69.085867 0.8192-4.096-7.645867-4.9152-17.749333-5.7344-65.809067l-1.092267-56.5248h-16.110933l0.8192 60.6208zM3058.346667 720.896v8.192h43.690666v139.264h19.114667v-139.264h43.690667v-16.384h-106.496v8.192zM2588.125867 726.903467c-7.099733 2.4576-7.645867 3.822933-7.645867 16.110933v13.380267h-9.557333c-8.465067 0-9.557333 0.8192-9.557334 6.826666s1.092267 6.826667 9.557334 6.826667h9.557333v42.052267c0 37.956267 0.546133 42.5984 5.461333 48.878933 10.103467 12.834133 38.229333 13.380267 38.229334 1.092267 0-5.461333-1.092267-6.280533-9.284267-5.188267-15.5648 1.911467-18.0224-4.9152-18.0224-49.152V770.048h13.653333c12.834133 0 13.653333-0.546133 13.653334-6.826667s-0.8192-6.826667-13.653334-6.826666h-13.380266l-0.8192-15.837867-0.8192-16.110933-7.3728 2.4576zM1519.616 755.3024c-16.110933 4.096-20.48 7.3728-20.48 15.018667v7.645866l11.741867-5.188266c22.664533-10.376533 41.233067-5.188267 44.509866 12.561066 2.184533 12.014933 0.273067 13.380267-21.572266 16.110934-33.860267 3.822933-45.602133 13.380267-45.602134 37.6832 0 15.291733 7.3728 25.122133 21.845334 29.4912 13.380267 4.096 27.8528 1.365333 38.229333-7.3728l8.192-7.099734v7.099734c0 6.007467 1.092267 7.099733 8.192 7.099733h8.192v-45.056c0-47.786667-1.6384-55.432533-12.834133-63.0784-6.826667-4.369067-30.583467-7.3728-40.413867-4.9152zM1556.48 821.930667c0 28.672-27.8528 46.148267-45.056 28.672-13.380267-13.1072-4.369067-31.9488 16.657067-35.498667 6.007467-1.092267 12.014933-2.184533 13.380266-2.730667 1.6384-0.546133 5.461333-1.092267 9.0112-1.092266 5.188267-0.273067 6.007467 1.092267 6.007467 10.6496zM1644.9536 758.852267c-6.280533 3.003733-12.834133 7.3728-14.472533 10.376533-2.4576 4.096-2.730667 3.549867-3.003734-4.096 0-7.918933-0.8192-8.738133-8.192-8.738133h-8.192v111.957333h16.384v-37.137067c0-28.672 1.092267-39.3216 4.369067-46.421333 8.465067-17.476267 31.402667-23.210667 43.144533-10.6496 8.465067 9.0112 9.8304 17.2032 9.8304 58.9824V868.352h16.384v-42.325333c0-37.6832-0.546133-43.963733-5.7344-53.521067-9.0112-18.0224-28.945067-23.483733-50.517333-13.653333zM1983.556267 758.852267c-6.280533 3.003733-12.834133 7.3728-14.472534 10.376533-2.4576 4.096-2.730667 3.549867-3.003733-4.096 0-7.918933-0.8192-8.738133-8.192-8.738133h-8.192v111.957333h16.384v-37.137067c0-28.672 1.092267-39.3216 4.369067-46.421333 8.465067-17.476267 31.402667-23.210667 43.144533-10.6496 8.465067 9.0112 9.8304 17.2032 9.8304 58.9824V868.352h16.384v-42.325333c0-37.6832-0.546133-43.963733-5.7344-53.521067-9.0112-18.0224-28.945067-23.483733-50.517333-13.653333zM2257.169067 756.394667c-20.48 6.5536-34.4064 29.764267-34.4064 57.344 0 40.1408 25.122133 62.532267 61.986133 56.251733 19.6608-3.549867 25.3952-7.099733 25.3952-15.5648 0-4.369067-0.273067-7.918933-0.8192-7.918933-0.273067 0-5.461333 2.4576-11.4688 5.461333-12.834133 6.5536-29.218133 7.099733-39.3216 1.092267-9.284267-5.461333-13.1072-11.4688-16.384-25.668267l-2.4576-10.922667H2318.336v-13.1072c0-15.291733-8.738133-34.679467-19.114667-42.052266-8.192-6.007467-30.856533-8.465067-42.052266-4.9152z m32.494933 17.2032c4.9152 4.096 7.645867 9.8304 8.738133 17.749333l1.6384 11.4688h-58.709333l1.6384-9.0112c0.8192-4.9152 5.7344-12.561067 11.195733-17.749333 11.741867-10.922667 24.849067-11.741867 35.498667-2.4576zM2380.5952 757.76c-4.096 2.4576-9.284267 7.645867-11.4688 11.741867l-4.096 7.3728-0.273067-10.376534c0-9.284267-0.546133-10.103467-8.192-10.103466h-8.192v111.957333h16.384v-33.5872c0-18.295467 1.365333-37.956267 2.730667-43.4176 4.096-13.9264 14.7456-22.1184 28.125867-20.753067 10.103467 1.092267 10.376533 0.8192 9.557333-7.3728-0.8192-6.826667-2.184533-8.192-9.0112-8.738133-4.369067-0.546133-11.4688 1.092267-15.5648 3.2768zM2446.404267 756.1216c-12.561067 4.096-18.8416 8.465067-22.9376 16.657067-9.557333 18.568533-2.4576 31.9488 22.391466 43.963733 23.483733 10.922667 28.125867 15.018667 28.125867 24.576 0 15.291733-24.029867 21.2992-44.509867 10.922667l-10.103466-5.188267v9.284267c0 10.922667 5.7344 13.380267 31.402666 13.1072 19.387733 0 32.221867-6.007467 38.229334-17.476267 9.557333-18.568533 2.730667-31.9488-22.391467-43.963733-10.376533-4.642133-20.753067-10.376533-23.210667-12.834134-6.826667-6.007467-6.280533-18.295467 1.092267-23.483733 7.645867-5.461333 25.668267-5.461333 35.771733-0.546133 7.099733 4.096 7.3728 3.822933 7.3728-3.822934 0-4.369067-1.365333-8.738133-2.730666-9.557333-4.9152-3.003733-31.1296-4.096-38.5024-1.6384zM2844.535467 757.76c-21.572267 7.645867-34.4064 27.306667-34.679467 52.974933 0 40.413867 23.7568 63.8976 60.893867 59.255467 34.133333-3.822933 53.794133-36.317867 45.329066-75.3664-6.826667-32.494933-38.5024-48.878933-71.543466-36.864z m36.0448 13.380267c11.4688 6.007467 17.2032 16.930133 18.568533 35.498666 2.4576 30.856533-11.195733 50.7904-34.4064 50.7904-22.391467 0-36.590933-17.749333-36.590933-45.056 0-10.103467 1.6384-19.6608 4.642133-25.3952 9.0112-17.2032 30.856533-24.576 47.786667-15.837866zM3193.787733 756.394667c-20.48 6.5536-34.4064 29.764267-34.4064 57.344 0 40.1408 25.122133 62.532267 61.986134 56.251733 19.6608-3.549867 25.3952-7.099733 25.3952-15.5648 0-4.369067-0.273067-7.918933-0.8192-7.918933-0.273067 0-5.461333 2.4576-11.4688 5.461333-12.834133 6.5536-29.218133 7.099733-39.3216 1.092267-9.284267-5.461333-13.1072-11.4688-16.384-25.668267l-2.4576-10.922667h78.6432v-13.1072c0-15.291733-8.738133-34.679467-19.114667-42.052266-8.192-6.007467-30.856533-8.465067-42.052267-4.9152z m32.494934 17.2032c4.9152 4.096 7.645867 9.8304 8.738133 17.749333l1.6384 11.4688h-58.709333l1.6384-9.0112c0.8192-4.9152 5.7344-12.561067 11.195733-17.749333 11.741867-10.922667 24.849067-11.741867 35.498667-2.4576zM3311.2064 756.9408c-13.653333 3.822933-29.4912 19.6608-33.860267 33.860267-15.018667 50.244267 17.476267 89.019733 64.7168 77.550933 12.834133-3.003733 13.9264-3.822933 13.9264-11.195733 0-9.0112-1.365333-9.284267-10.922666-3.822934-15.5648 8.738133-39.3216 1.6384-47.240534-14.199466-8.738133-17.476267-7.3728-44.509867 3.003734-56.797867 12.288-15.018667 31.675733-19.387733 47.786666-11.195733 7.099733 4.096 7.3728 3.822933 7.3728-3.822934 0-4.369067-1.365333-8.738133-2.730666-9.557333-5.461333-3.2768-31.402667-3.822933-42.052267-0.8192zM3542.766933 758.852267c-6.280533 3.003733-12.834133 7.3728-14.472533 10.376533-2.4576 4.096-2.730667 3.549867-3.003733-4.096 0-7.918933-0.8192-8.738133-8.192-8.738133h-8.192v111.957333h16.384v-37.137067c0-28.672 1.092267-39.3216 4.369066-46.421333 8.465067-17.476267 31.402667-23.210667 43.144534-10.6496 8.465067 9.0112 9.8304 17.2032 9.8304 58.9824V868.352h16.384v-42.325333c0-37.6832-0.546133-43.963733-5.7344-53.521067-9.0112-18.0224-28.945067-23.483733-50.517334-13.653333zM3661.0048 757.76c-21.572267 7.645867-34.4064 27.306667-34.679467 52.974933 0 40.413867 23.7568 63.8976 60.893867 59.255467 34.133333-3.822933 53.794133-36.317867 45.329067-75.3664-6.826667-32.494933-38.5024-48.878933-71.543467-36.864z m36.0448 13.380267c11.4688 6.007467 17.2032 16.930133 18.568533 35.498666 2.4576 30.856533-11.195733 50.7904-34.4064 50.7904-22.391467 0-36.590933-17.749333-36.590933-45.056 0-10.103467 1.6384-19.6608 4.642133-25.3952 9.0112-17.2032 30.856533-24.576 47.786667-15.837866zM3843.959467 757.76c-21.572267 7.645867-34.4064 27.306667-34.679467 52.974933 0 40.413867 23.7568 63.8976 60.893867 59.255467 34.133333-3.822933 53.794133-36.317867 45.329066-75.3664-6.826667-32.494933-38.5024-48.878933-71.543466-36.864z m36.0448 13.380267c11.4688 6.007467 17.2032 16.930133 18.568533 35.498666 2.4576 30.856533-11.195733 50.7904-34.4064 50.7904-22.391467 0-36.590933-17.749333-36.590933-45.056 0-10.103467 1.6384-19.6608 4.642133-25.3952 9.0112-17.2032 30.856533-24.576 47.786667-15.837866zM3975.5776 756.1216c-13.1072 4.096-18.8416 8.738133-26.2144 21.572267-6.826667 11.4688-7.645867 15.5648-7.645867 37.6832s0.8192 25.668267 7.3728 35.771733c14.472533 22.1184 46.6944 25.941333 66.901334 8.192l9.8304-8.738133-1.6384 15.5648c-1.911467 19.933867-6.5536 29.218133-18.295467 37.137066-7.918933 5.461333-12.288 6.280533-24.576 5.461334-8.192-0.546133-19.114667-3.003733-23.7568-5.461334l-9.0112-4.369066v9.0112c0 9.0112 0.273067 9.284267 15.837867 12.561066 18.568533 3.822933 45.602133 0.273067 56.251733-7.3728 3.549867-3.003733 9.557333-10.103467 13.1072-16.110933 6.007467-10.376533 6.280533-13.653333 7.099733-75.912533l0.8192-64.7168h-8.192c-7.3728 0-8.465067 1.092267-8.465066 7.3728v7.099733l-6.007467-5.7344c-11.4688-10.376533-27.306667-13.653333-43.4176-9.0112z m35.498667 18.0224c4.369067 3.822933 9.557333 11.4688 11.4688 16.930133 3.822933 12.288 1.911467 37.956267-4.096 49.425067-11.4688 22.1184-43.690667 22.1184-55.432534-0.273067-6.007467-11.741867-6.280533-41.233067 0-52.974933 10.6496-20.206933 32.221867-26.2144 48.059734-13.1072zM1245.184 799.5392c0 36.317867 0.8192 44.509867 4.9152 52.4288 11.4688 21.572267 43.690667 25.3952 62.805333 7.645867l6.007467-5.7344v7.099733c0 6.280533 1.092267 7.3728 8.192 7.3728h8.192v-111.957333h-16.384v37.137066c0 28.672-1.092267 39.3216-4.369067 46.421334-7.099733 15.018667-25.941333 21.845333-39.867733 14.472533-10.103467-5.461333-13.1072-18.8416-13.1072-59.8016v-38.229333h-16.384v43.144533zM2072.576 812.373333V868.352h16.384v-111.957333h-16.384v55.978666zM2110.805333 758.306133c0 1.365333 9.0112 26.2144 20.206934 55.432534l19.933866 53.248H2169.2416l19.933867-50.517334c26.2144-66.3552 24.849067-60.074667 13.9264-60.074666-8.738133 0-9.557333 0.8192-13.653334 12.834133-2.4576 7.3728-9.8304 28.398933-16.384 47.5136l-12.288 34.133333-15.5648-47.240533-15.5648-47.240533h-9.557333c-5.188267 0-9.284267 0.8192-9.284267 1.911466zM2520.405333 812.373333V868.352h16.384v-111.957333h-16.384v55.978666zM2632.362667 758.033067c0 0.8192 9.284267 25.668267 20.753066 55.159466l20.753067 53.794134-4.642133 14.7456c-6.007467 19.114667-15.291733 28.672-26.2144 27.0336-7.3728-1.092267-8.192-0.546133-7.3728 5.7344 0.8192 6.5536 1.911467 7.099733 12.561066 6.826666 12.834133-0.273067 22.391467-7.099733 30.037334-21.572266 2.184533-4.642133 16.110933-38.5024 30.856533-75.912534l26.487467-67.447466h-9.0112c-10.376533 0-7.3728-5.461333-31.402667 60.893866l-11.741867 32.494934-6.5536-17.476267c-3.2768-9.284267-10.6496-30.3104-16.110933-46.6944l-9.8304-29.218133h-9.284267c-5.188267 0-9.284267 0.546133-9.284266 1.6384zM4063.232 758.033067c0 0.8192 9.284267 25.668267 20.753067 55.159466l20.753066 53.794134-4.642133 14.7456c-6.007467 19.114667-15.291733 28.672-26.2144 27.0336-7.3728-1.092267-8.192-0.546133-7.3728 5.7344 0.8192 6.5536 1.911467 7.099733 12.561067 6.826666 12.834133-0.273067 22.391467-7.099733 30.037333-21.572266 2.184533-4.642133 16.110933-38.5024 30.856533-75.912534l26.487467-67.447466h-9.0112c-10.376533 0-7.3728-5.461333-31.402667 60.893866l-11.741866 32.494934-6.5536-17.476267c-3.2768-9.284267-10.6496-30.3104-16.110934-46.6944l-9.8304-29.218133h-9.284266c-5.188267 0-9.284267 0.546133-9.284267 1.6384z" fill="#ffffff" p-id="4569"></path></svg>